<?xml version="1.0" encoding="UTF-8"?>
<!--
Font Awesome Free 5.1.1 by @fontawesome - https://fontawesome.com
License - https://fontawesome.com/license (Icons: CC BY 4.0, Fonts: SIL OFL 1.1, Code: MIT License)
-->
<svg xmlns="http://www.w3.org/2000/svg" style="display: none;">
 <symbol id="angle-down" viewBox="0 0 448 512">
    <title id="angle-down-title">angle-down</title>
    <path fill="#ffd700" d="M201.4 374.6c12.5 12.5 32.8 12.5 45.3 0l160-160c12.5-12.5 12.5-32.8 0-45.3s-32.8-12.5-45.3 0L224 306.7 86.6 169.4c-12.5-12.5-32.8-12.5-45.3 0s-12.5 32.8 0 45.3l160 160z"></path>
  </symbol>
 <symbol id="save" viewBox="0 0 448 512">
    <title id="save-title">save</title>
    <path fill="#ffd700" d="M48 96l0 320c0 8.8 7.2 16 16 16l320 0c8.8 0 16-7.2 16-16l0-245.5c0-4.2-1.7-8.3-4.7-11.3l33.9-33.9c12 12 18.7 28.3 18.7 45.3L448 416c0 35.3-28.7 64-64 64L64 480c-35.3 0-64-28.7-64-64L0 96C0 60.7 28.7 32 64 32l245.5 0c17 0 33.3 6.7 45.3 18.7l74.5 74.5-33.9 33.9L320.8 84.7c-.3-.3-.5-.5-.8-.8L320 184c0 13.3-10.7 24-24 24l-192 0c-13.3 0-24-10.7-24-24L80 80 64 80c-8.8 0-16 7.2-16 16zm80-16l0 80 144 0 0-80L128 80zm32 240a64 64 0 1 1 128 0 64 64 0 1 1 -128 0z"></path>
  </symbol>
 <symbol id="arrow-left" viewBox="0 0 448 512">
    <title id="arrow-left-title">arrow-left</title>
    <path fill="#ffd700" d="M9.4 233.4c-12.5 12.5-12.5 32.8 0 45.3l160 160c12.5 12.5 32.8 12.5 45.3 0s12.5-32.8 0-45.3L109.2 288 416 288c17.7 0 32-14.3 32-32s-14.3-32-32-32l-306.7 0L214.6 118.6c12.5-12.5 12.5-32.8 0-45.3s-32.8-12.5-45.3 0l-160 160z"></path>
  </symbol>
 <symbol id="file-export" viewBox="0 0 576 512">
    <title id="file-export-title">file-export</title>
    <path fill="#ffd700" d="M0 64C0 28.7 28.7 0 64 0L224 0l0 128c0 17.7 14.3 32 32 32l128 0 0 128-168 0c-13.3 0-24 10.7-24 24s10.7 24 24 24l168 0 0 112c0 35.3-28.7 64-64 64L64 512c-35.3 0-64-28.7-64-64L0 64zM384 336l0-48 110.1 0-39-39c-9.4-9.4-9.4-24.6 0-33.9s24.6-9.4 33.9 0l80 80c9.4 9.4 9.4 24.6 0 33.9l-80 80c-9.4 9.4-24.6 9.4-33.9 0s-9.4-24.6 0-33.9l39-39L384 336zm0-208l-128 0L256 0 384 128z"></path>
  </symbol>
 <symbol id="file-import" viewBox="0 0 512 512">
    <title id="file-import-title">file-import</title>
    <path fill="#ffd700" d="M128 64c0-35.3 28.7-64 64-64L352 0l0 128c0 17.7 14.3 32 32 32l128 0 0 288c0 35.3-28.7 64-64 64l-256 0c-35.3 0-64-28.7-64-64l0-112 174.1 0-39 39c-9.4 9.4-9.4 24.6 0 33.9s24.6 9.4 33.9 0l80-80c9.4-9.4 9.4-24.6 0-33.9l-80-80c-9.4-9.4-24.6-9.4-33.9 0s-9.4 24.6 0 33.9l39 39L128 288l0-224zm0 224l0 48L24 336c-13.3 0-24-10.7-24-24s10.7-24 24-24l104 0zM512 128l-128 0L384 0 512 128z"></path>
  </symbol>
 <symbol id="trash" viewBox="0 0 448 512">
    <title id="trash-title">trash</title>
    <path fill="#ffd700" d="M135.2 17.7L128 32 32 32C14.3 32 0 46.3 0 64S14.3 96 32 96l384 0c17.7 0 32-14.3 32-32s-14.3-32-32-32l-96 0-7.2-14.3C307.4 6.8 296.3 0 284.2 0L163.8 0c-12.1 0-23.2 6.8-28.6 17.7zM416 128L32 128 53.2 467c1.6 25.3 22.6 45 47.9 45l245.8 0c25.3 0 46.3-19.7 47.9-45L416 128z"></path>
  </symbol>

 <symbol id="plus" viewBox="0 0 448 512">
    <title id="plus-title">plus</title>
    <path fill="#ffd700" d="M256 80c0-17.7-14.3-32-32-32s-32 14.3-32 32l0 144L48 224c-17.7 0-32 14.3-32 32s14.3 32 32 32l144 0 0 144c0 17.7 14.3 32 32 32s32-14.3 32-32l0-144 144 0c17.7 0 32-14.3 32-32s-14.3-32-32-32l-144 0 0-144z"></path>
  </symbol>
 <symbol id="external-link-alt" viewBox="0 0 512 512">
    <title id="external-link-alt-title">external-link-alt</title>
    <path fill="#ffd700" d="M352 0c-12.9 0-24.6 7.8-29.6 19.8s-2.2 25.7 6.9 34.9L370.7 96 201.4 265.4c-12.5 12.5-12.5 32.8 0 45.3s32.8 12.5 45.3 0L416 141.3l41.4 41.4c9.2 9.2 22.9 11.9 34.9 6.9s19.8-16.6 19.8-29.6l0-128c0-17.7-14.3-32-32-32L352 0zM80 32C35.8 32 0 67.8 0 112L0 432c0 44.2 35.8 80 80 80l320 0c44.2 0 80-35.8 80-80l0-112c0-17.7-14.3-32-32-32s-32 14.3-32 32l0 112c0 8.8-7.2 16-16 16L80 448c-8.8 0-16-7.2-16-16l0-320c0-8.8 7.2-16 16-16l112 0c17.7 0 32-14.3 32-32s-14.3-32-32-32L80 32z"></path>
  </symbol>

<symbol id="exclamation-triangle" viewBox="0 0 512 512">
    <title id="exclamation-triangle-title">exclamation-triangle</title>
    <path d="M256 32c14.2 0 27.3 7.5 34.5 19.8l216 368c7.3 12.4 7.3 27.7 .2 40.1S486.3 480 472 480L40 480c-14.3 0-27.6-7.7-34.7-20.1s-7-27.8 .2-40.1l216-368C228.7 39.5 241.8 32 256 32zm0 128c-13.3 0-24 10.7-24 24l0 112c0 13.3 10.7 24 24 24s24-10.7 24-24l0-112c0-13.3-10.7-24-24-24zm32 224a32 32 0 1 0 -64 0 32 32 0 1 0 64 0z"></path>
  </symbol>
<symbol id="circle-info" viewBox="0 0 512 512">
    <title id="circle-info-title">circle-info</title>
    <path fill="#ffd700" d="M256 512A256 256 0 1 0 256 0a256 256 0 1 0 0 512zM216 336l24 0 0-64-24 0c-13.3 0-24-10.7-24-24s10.7-24 24-24l48 0c13.3 0 24 10.7 24 24l0 88 8 0c13.3 0 24 10.7 24 24s-10.7 24-24 24l-80 0c-13.3 0-24-10.7-24-24s10.7-24 24-24zm40-208a32 32 0 1 1 0 64 32 32 0 1 1 0-64z"></path>
  </symbol>
<symbol id="search" viewBox="0 0 512 512">
    <title id="search-title">search</title>
    <path fill="#ffd700" d="M416 208c0 45.9-14.9 88.3-40 122.7L502.6 457.4c12.5 12.5 12.5 32.8 0 45.3s-32.8 12.5-45.3 0L330.7 376c-34.4 25.2-76.8 40-122.7 40C93.1 416 0 322.9 0 208S93.1 0 208 0S416 93.1 416 208zM208 352a144 144 0 1 0 0-288 144 144 0 1 0 0 288z"></path>
  </symbol>
<symbol id="brush" viewBox="0 0 384 512">
    <title id="brush-title">brush</title>
    <path fill="#ffd700" d="M162.4 6c-1.5-3.6-5-6-8.9-6l-19 0c-3.9 0-7.5 2.4-8.9 6L104.9 57.7c-3.2 8-14.6 8-17.8 0L66.4 6c-1.5-3.6-5-6-8.9-6L48 0C21.5 0 0 21.5 0 48L0 224l0 22.4L0 256l9.6 0 364.8 0 9.6 0 0-9.6 0-22.4 0-176c0-26.5-21.5-48-48-48L230.5 0c-3.9 0-7.5 2.4-8.9 6L200.9 57.7c-3.2 8-14.6 8-17.8 0L162.4 6zM0 288l0 32c0 35.3 28.7 64 64 64l64 0 0 64c0 35.3 28.7 64 64 64s64-28.7 64-64l0-64 64 0c35.3 0 64-28.7 64-64l0-32L0 288zM192 432a16 16 0 1 1 0 32 16 16 0 1 1 0-32z"></path>
  </symbol>
<symbol id="eject" viewBox="0 0 448 512">
    <title id="eject-title">eject</title>
    <path fill="#ffd700" d="M224 32c13.5 0 26.3 5.6 35.4 15.6l176 192c12.9 14 16.2 34.3 8.6 51.8S419 320 400 320L48 320c-19 0-36.3-11.2-43.9-28.7s-4.3-37.7 8.6-51.8l176-192C197.7 37.6 210.5 32 224 32zM0 432c0-26.5 21.5-48 48-48l352 0c26.5 0 48 21.5 48 48s-21.5 48-48 48L48 480c-26.5 0-48-21.5-48-48z"></path>
  </symbol>
<symbol id="play" viewBox="0 0 384 512">
    <title id="play-title">play</title>
    <path fill="#ffd700" d="M73 39c-14.8-9.1-33.4-9.4-48.5-.9S0 62.6 0 80L0 432c0 17.4 9.4 33.4 24.5 41.9s33.7 8.1 48.5-.9L361 297c14.3-8.7 23-24.2 23-41s-8.7-32.2-23-41L73 39z"></path>
  </symbol>
<symbol id="eye" viewBox="0 0 576 512">
    <title id="eye-title">eye</title>
    <path fill="#ffd700" d="M288 32c-80.8 0-145.5 36.8-192.6 80.6C48.6 156 17.3 208 2.5 243.7c-3.3 7.9-3.3 16.7 0 24.6C17.3 304 48.6 356 95.4 399.4C142.5 443.2 207.2 480 288 480s145.5-36.8 192.6-80.6c46.8-43.5 78.1-95.4 93-131.1c3.3-7.9 3.3-16.7 0-24.6c-14.9-35.7-46.2-87.7-93-131.1C433.5 68.8 368.8 32 288 32zM144 256a144 144 0 1 1 288 0 144 144 0 1 1 -288 0zm144-64c0 35.3-28.7 64-64 64c-7.1 0-13.9-1.2-20.3-3.3c-5.5-1.8-11.9 1.6-11.7 7.4c.3 6.9 1.3 13.8 3.2 20.7c13.7 51.2 66.4 81.6 117.6 67.9s81.6-66.4 67.9-117.6c-11.1-41.5-47.8-69.4-88.6-71.1c-5.8-.2-9.2 6.1-7.4 11.7c2.1 6.4 3.3 13.2 3.3 20.3z"></path>
  </symbol>
<symbol id="set" viewBox="0 0 448 512">
    <title id="set-title">set</title>
    <path fill="#ffd700" d="M0 96C0 78.3 14.3 64 32 64l384 0c17.7 0 32 14.3 32 32s-14.3 32-32 32L32 128C14.3 128 0 113.7 0 96zM0 256c0-17.7 14.3-32 32-32l384 0c17.7 0 32 14.3 32 32s-14.3 32-32 32L32 288c-17.7 0-32-14.3-32-32zM448 416c0 17.7-14.3 32-32 32L32 448c-17.7 0-32-14.3-32-32s14.3-32 32-32l384 0c17.7 0 32 14.3 32 32z"></path>
  </symbol>
 <symbol id="ellipsisv" viewBox="0 0 448 512">
    <title id="ellipsisv-title">ellipsisv</title>
    <path d="M8 256a56 56 0 1 1 112 0A56 56 0 1 1 8 256zm160 0a56 56 0 1 1 112 0 56 56 0 1 1 -112 0zm216-56a56 56 0 1 1 0 112 56 56 0 1 1 0-112z"></path>
  </symbol>
</svg>